<svg width="1063" height="414" viewBox="0 0 1063 414" fill="none" xmlns="http://www.w3.org/2000/svg">
<path fill-rule="evenodd" clip-rule="evenodd" d="M196.436 167.473L333.057 30.8418V248.217L196.436 384.838L59.8047 248.217V111.586H140.548L196.436 167.473Z" fill="#725FED"/>
<path fill-rule="evenodd" clip-rule="evenodd" d="M196.438 318.421L230.585 284.263V320.489L196.438 354.646V318.421ZM196.438 197.655L298.901 95.1914V131.417L196.438 233.89V197.655ZM196.438 258.038L264.743 189.732V225.958L196.438 294.273V258.038Z" fill="white"/>
<path fill-rule="evenodd" clip-rule="evenodd" d="M709.181 187.984H753.269V226.408H709.181V261.515C709.181 270.606 716.604 278.029 725.695 278.029C730.641 278.029 757.865 278.838 760.253 277.34V315.723C749.073 316.363 736.385 315.793 725.036 315.793C695.194 315.793 670.757 291.356 670.757 261.515V137.042H683.355L709.181 162.858V187.984ZM856.382 120.228C868.441 120.228 878.211 130.009 878.211 142.067C878.211 154.126 868.441 163.897 856.382 163.897C844.323 163.897 834.543 154.126 834.543 142.067C834.543 130.009 844.323 120.228 856.382 120.228ZM875.594 207.416V314.105H837.17V181.59H849.768L875.594 207.416ZM951.992 188.044H996.08V226.468H951.992V261.574C951.992 270.666 959.415 278.099 968.506 278.099C973.451 278.099 1000.68 278.898 1003.06 277.409V315.783C991.884 316.423 979.196 315.853 967.847 315.853C938.005 315.853 913.568 291.416 913.568 261.574V137.112H926.176L951.992 162.928V188.044ZM613.122 120.168C625.18 120.168 634.951 129.939 634.951 142.007C634.951 154.066 625.18 163.837 613.122 163.837C601.053 163.837 591.282 154.066 591.282 142.007C591.282 129.939 601.053 120.168 613.122 120.168ZM632.324 207.346V314.045H593.91V181.53H606.508L632.324 207.346ZM420.953 137.042H568.294V175.466H459.387V215.288H547.823V253.712H459.387V314.045H420.953V137.042Z" fill="#725FED"/>
</svg>
