<svg width="1063" height="413" viewBox="0 0 1063 413" fill="none" xmlns="http://www.w3.org/2000/svg">
<path fill-rule="evenodd" clip-rule="evenodd" d="M196.436 166.973L333.057 30.3418V247.717L196.436 384.338L59.8047 247.717V111.086H140.548L196.436 166.973Z" fill="white"/>
<path fill-rule="evenodd" clip-rule="evenodd" d="M196.438 317.921L230.585 283.763V319.989L196.438 354.146V317.921ZM196.438 197.155L298.901 94.6914V130.917L196.438 233.39V197.155ZM196.438 257.538L264.743 189.232V225.458L196.438 293.773V257.538Z" fill="#725FED"/>
<path fill-rule="evenodd" clip-rule="evenodd" d="M709.181 187.484H753.269V225.908H709.181V261.015C709.181 270.106 716.604 277.529 725.695 277.529C730.641 277.529 757.865 278.338 760.253 276.84V315.223C749.073 315.863 736.385 315.293 725.036 315.293C695.194 315.293 670.757 290.856 670.757 261.015V136.542H683.355L709.181 162.358V187.484ZM856.382 119.728C868.441 119.728 878.211 129.509 878.211 141.567C878.211 153.626 868.441 163.397 856.382 163.397C844.323 163.397 834.543 153.626 834.543 141.567C834.543 129.509 844.323 119.728 856.382 119.728ZM875.594 206.916V313.605H837.17V181.09H849.768L875.594 206.916ZM951.992 187.544H996.08V225.968H951.992V261.074C951.992 270.166 959.415 277.599 968.506 277.599C973.451 277.599 1000.68 278.398 1003.06 276.909V315.283C991.884 315.923 979.196 315.353 967.847 315.353C938.005 315.353 913.568 290.916 913.568 261.074V136.612H926.176L951.992 162.428V187.544ZM613.122 119.668C625.18 119.668 634.951 129.439 634.951 141.507C634.951 153.566 625.18 163.337 613.122 163.337C601.053 163.337 591.282 153.566 591.282 141.507C591.282 129.439 601.053 119.668 613.122 119.668ZM632.324 206.846V313.545H593.91V181.03H606.508L632.324 206.846ZM420.953 136.542H568.294V174.966H459.387V214.788H547.823V253.212H459.387V313.545H420.953V136.542Z" fill="white"/>
</svg>
